solid Exported from Blender-3.4.0
facet normal 0.995185 0.000000 -0.098018
outer loop
vertex 8.250000 3.635348 4.000000
vertex 8.250000 -0.364652 4.000000
vertex 8.187551 -0.364652 3.365956
endloop
endfacet
facet normal 0.995185 0.000000 -0.098018
outer loop
vertex 8.250000 3.635348 4.000000
vertex 8.187551 -0.364652 3.365956
vertex 8.187551 3.635348 3.365956
endloop
endfacet
facet normal 0.956941 0.000000 -0.290284
outer loop
vertex 8.187551 3.635348 3.365956
vertex 8.187551 -0.364652 3.365956
vertex 8.002608 -0.364652 2.756279
endloop
endfacet
facet normal 0.956941 0.000000 -0.290284
outer loop
vertex 8.187551 3.635348 3.365956
vertex 8.002608 -0.364652 2.756279
vertex 8.002608 3.635348 2.756279
endloop
endfacet
facet normal 0.881921 0.000000 -0.471397
outer loop
vertex 8.002608 3.635348 2.756279
vertex 8.002608 -0.364652 2.756279
vertex 7.702276 -0.364652 2.194396
endloop
endfacet
facet normal 0.881921 0.000000 -0.471397
outer loop
vertex 8.002608 3.635348 2.756279
vertex 7.702276 -0.364652 2.194396
vertex 7.702276 3.635348 2.194396
endloop
endfacet
facet normal 0.773010 0.000000 -0.634394
outer loop
vertex 7.702276 3.635348 2.194396
vertex 7.702276 -0.364652 2.194396
vertex 7.298097 -0.364652 1.701903
endloop
endfacet
facet normal 0.773010 0.000000 -0.634394
outer loop
vertex 7.702276 3.635348 2.194396
vertex 7.298097 -0.364652 1.701903
vertex 7.298097 3.635348 1.701903
endloop
endfacet
facet normal 0.634394 0.000000 -0.773010
outer loop
vertex 7.298097 3.635348 1.701903
vertex 7.298097 -0.364652 1.701903
vertex 6.805603 -0.364652 1.297724
endloop
endfacet
facet normal 0.634394 0.000000 -0.773010
outer loop
vertex 7.298097 3.635348 1.701903
vertex 6.805603 -0.364652 1.297724
vertex 6.805603 3.635348 1.297724
endloop
endfacet
facet normal 0.471397 0.000000 -0.881921
outer loop
vertex 6.805603 3.635348 1.297724
vertex 6.805603 -0.364652 1.297724
vertex 6.243721 -0.364652 0.997392
endloop
endfacet
facet normal 0.471397 0.000000 -0.881921
outer loop
vertex 6.805603 3.635348 1.297724
vertex 6.243721 -0.364652 0.997392
vertex 6.243721 3.635348 0.997392
endloop
endfacet
facet normal 0.290285 0.000000 -0.956940
outer loop
vertex 6.243721 3.635348 0.997392
vertex 6.243721 -0.364652 0.997392
vertex 5.634043 -0.364652 0.812448
endloop
endfacet
facet normal 0.290285 -0.000000 -0.956940
outer loop
vertex 6.243721 3.635348 0.997392
vertex 5.634043 -0.364652 0.812448
vertex 5.634044 3.635348 0.812448
endloop
endfacet
facet normal 0.098017 -0.000000 -0.995185
outer loop
vertex 5.634044 3.635348 0.812448
vertex 5.634043 -0.364652 0.812448
vertex 5.000000 -0.364652 0.750000
endloop
endfacet
facet normal 0.098017 0.000000 -0.995185
outer loop
vertex 5.634044 3.635348 0.812448
vertex 5.000000 -0.364652 0.750000
vertex 5.000000 3.635348 0.750000
endloop
endfacet
facet normal -0.098017 0.000000 -0.995185
outer loop
vertex 5.000000 3.635348 0.750000
vertex 5.000000 -0.364652 0.750000
vertex 4.365956 -0.364652 0.812448
endloop
endfacet
facet normal -0.098017 0.000000 -0.995185
outer loop
vertex 5.000000 3.635348 0.750000
vertex 4.365956 -0.364652 0.812448
vertex 4.365956 3.635348 0.812448
endloop
endfacet
facet normal -0.290285 0.000000 -0.956940
outer loop
vertex 4.365956 3.635348 0.812448
vertex 4.365956 -0.364652 0.812448
vertex 3.756279 -0.364652 0.997392
endloop
endfacet
facet normal -0.290285 0.000000 -0.956940
outer loop
vertex 4.365956 3.635348 0.812448
vertex 3.756279 -0.364652 0.997392
vertex 3.756279 3.635348 0.997392
endloop
endfacet
facet normal -0.471396 0.000000 -0.881921
outer loop
vertex 3.756279 3.635348 0.997392
vertex 3.756279 -0.364652 0.997392
vertex 3.194396 -0.364652 1.297724
endloop
endfacet
facet normal -0.471397 0.000000 -0.881921
outer loop
vertex 3.756279 3.635348 0.997392
vertex 3.194396 -0.364652 1.297724
vertex 3.194397 3.635348 1.297724
endloop
endfacet
facet normal -0.634394 0.000000 -0.773010
outer loop
vertex 3.194397 3.635348 1.297724
vertex 3.194396 -0.364652 1.297724
vertex 2.701903 -0.364652 1.701903
endloop
endfacet
facet normal -0.634394 0.000000 -0.773010
outer loop
vertex 3.194397 3.635348 1.297724
vertex 2.701903 -0.364652 1.701903
vertex 2.701903 3.635348 1.701903
endloop
endfacet
facet normal -0.773010 0.000000 -0.634393
outer loop
vertex 2.701903 3.635348 1.701903
vertex 2.701903 -0.364652 1.701903
vertex 2.297724 -0.364652 2.194397
endloop
endfacet
facet normal -0.773010 0.000000 -0.634393
outer loop
vertex 2.701903 3.635348 1.701903
vertex 2.297724 -0.364652 2.194397
vertex 2.297724 3.635348 2.194397
endloop
endfacet
facet normal -0.881921 0.000000 -0.471397
outer loop
vertex 2.297724 3.635348 2.194397
vertex 2.297724 -0.364652 2.194397
vertex 1.997392 -0.364652 2.756279
endloop
endfacet
facet normal -0.881921 0.000000 -0.471397
outer loop
vertex 2.297724 3.635348 2.194397
vertex 1.997392 -0.364652 2.756279
vertex 1.997392 3.635348 2.756279
endloop
endfacet
facet normal -0.956940 0.000000 -0.290285
outer loop
vertex 1.997392 3.635348 2.756279
vertex 1.997392 -0.364652 2.756279
vertex 1.812448 -0.364652 3.365957
endloop
endfacet
facet normal -0.956940 0.000000 -0.290285
outer loop
vertex 1.997392 3.635348 2.756279
vertex 1.812448 -0.364652 3.365957
vertex 1.812448 3.635348 3.365957
endloop
endfacet
facet normal -0.995185 0.000000 -0.098017
outer loop
vertex 1.812448 3.635348 3.365957
vertex 1.812448 -0.364652 3.365957
vertex 1.750000 -0.364652 4.000000
endloop
endfacet
facet normal -0.995185 0.000000 -0.098017
outer loop
vertex 1.812448 3.635348 3.365957
vertex 1.750000 -0.364652 4.000000
vertex 1.750000 3.635348 4.000000
endloop
endfacet
facet normal -0.995185 0.000000 0.098017
outer loop
vertex 1.750000 3.635348 4.000000
vertex 1.750000 -0.364652 4.000000
vertex 1.812448 -0.364652 4.634044
endloop
endfacet
facet normal -0.995185 0.000000 0.098017
outer loop
vertex 1.750000 3.635348 4.000000
vertex 1.812448 -0.364652 4.634044
vertex 1.812448 3.635348 4.634044
endloop
endfacet
facet normal -0.956940 0.000000 0.290284
outer loop
vertex 1.812448 3.635348 4.634044
vertex 1.812448 -0.364652 4.634044
vertex 1.997392 -0.364652 5.243721
endloop
endfacet
facet normal -0.956940 0.000000 0.290285
outer loop
vertex 1.812448 3.635348 4.634044
vertex 1.997392 -0.364652 5.243721
vertex 1.997392 3.635348 5.243721
endloop
endfacet
facet normal -0.881921 0.000000 0.471397
outer loop
vertex 1.997392 3.635348 5.243721
vertex 1.997392 -0.364652 5.243721
vertex 2.297724 -0.364652 5.805604
endloop
endfacet
facet normal -0.881921 0.000000 0.471397
outer loop
vertex 1.997392 3.635348 5.243721
vertex 2.297724 -0.364652 5.805604
vertex 2.297724 3.635348 5.805604
endloop
endfacet
facet normal -0.773010 0.000000 0.634393
outer loop
vertex 2.297724 3.635348 5.805604
vertex 2.297724 -0.364652 5.805604
vertex 2.701903 -0.364652 6.298097
endloop
endfacet
facet normal -0.773010 0.000000 0.634394
outer loop
vertex 2.297724 3.635348 5.805604
vertex 2.701903 -0.364652 6.298097
vertex 2.701903 3.635348 6.298097
endloop
endfacet
facet normal -0.634394 0.000000 0.773010
outer loop
vertex 2.701903 3.635348 6.298097
vertex 2.701903 -0.364652 6.298097
vertex 3.194397 -0.364652 6.702276
endloop
endfacet
facet normal -0.634394 0.000000 0.773010
outer loop
vertex 2.701903 3.635348 6.298097
vertex 3.194397 -0.364652 6.702276
vertex 3.194397 3.635348 6.702276
endloop
endfacet
facet normal -0.471397 0.000000 0.881921
outer loop
vertex 3.194397 3.635348 6.702276
vertex 3.194397 -0.364652 6.702276
vertex 3.756279 -0.364652 7.002608
endloop
endfacet
facet normal -0.471397 0.000000 0.881921
outer loop
vertex 3.194397 3.635348 6.702276
vertex 3.756279 -0.364652 7.002608
vertex 3.756279 3.635348 7.002608
endloop
endfacet
facet normal -0.290285 0.000000 0.956940
outer loop
vertex 3.756279 3.635348 7.002608
vertex 3.756279 -0.364652 7.002608
vertex 4.365956 -0.364652 7.187552
endloop
endfacet
facet normal -0.290284 0.000000 0.956941
outer loop
vertex 3.756279 3.635348 7.002608
vertex 4.365956 -0.364652 7.187552
vertex 4.365957 3.635348 7.187552
endloop
endfacet
facet normal -0.098017 0.000000 0.995185
outer loop
vertex 4.365957 3.635348 7.187552
vertex 4.365956 -0.364652 7.187552
vertex 5.000000 -0.364652 7.250000
endloop
endfacet
facet normal -0.098018 0.000000 0.995185
outer loop
vertex 4.365957 3.635348 7.187552
vertex 5.000000 -0.364652 7.250000
vertex 5.000000 3.635348 7.250000
endloop
endfacet
facet normal 0.098018 0.000000 0.995185
outer loop
vertex 5.000000 3.635348 7.250000
vertex 5.000000 -0.364652 7.250000
vertex 5.634044 -0.364652 7.187552
endloop
endfacet
facet normal 0.098017 0.000000 0.995185
outer loop
vertex 5.000000 3.635348 7.250000
vertex 5.634044 -0.364652 7.187552
vertex 5.634044 3.635348 7.187552
endloop
endfacet
facet normal 0.290284 0.000000 0.956940
outer loop
vertex 5.634044 3.635348 7.187552
vertex 5.634044 -0.364652 7.187552
vertex 6.243721 -0.364652 7.002608
endloop
endfacet
facet normal 0.290285 -0.000000 0.956940
outer loop
vertex 5.634044 3.635348 7.187552
vertex 6.243721 -0.364652 7.002608
vertex 6.243721 3.635348 7.002608
endloop
endfacet
facet normal 0.471397 0.000000 0.881921
outer loop
vertex 6.243721 3.635348 7.002608
vertex 6.243721 -0.364652 7.002608
vertex 6.805603 -0.364652 6.702276
endloop
endfacet
facet normal 0.471397 -0.000000 0.881921
outer loop
vertex 6.243721 3.635348 7.002608
vertex 6.805603 -0.364652 6.702276
vertex 6.805604 3.635348 6.702276
endloop
endfacet
facet normal 0.634394 0.000000 0.773010
outer loop
vertex 6.805604 3.635348 6.702276
vertex 6.805603 -0.364652 6.702276
vertex 7.298097 -0.364652 6.298097
endloop
endfacet
facet normal 0.634394 0.000000 0.773010
outer loop
vertex 6.805604 3.635348 6.702276
vertex 7.298097 -0.364652 6.298097
vertex 7.298097 3.635348 6.298097
endloop
endfacet
facet normal 0.773010 0.000000 0.634394
outer loop
vertex 7.298097 3.635348 6.298097
vertex 7.298097 -0.364652 6.298097
vertex 7.702276 -0.364652 5.805603
endloop
endfacet
facet normal 0.773010 0.000000 0.634394
outer loop
vertex 7.298097 3.635348 6.298097
vertex 7.702276 -0.364652 5.805603
vertex 7.702276 3.635348 5.805603
endloop
endfacet
facet normal 0.881922 0.000000 0.471396
outer loop
vertex 7.702276 3.635348 5.805603
vertex 7.702276 -0.364652 5.805603
vertex 8.002608 -0.364652 5.243721
endloop
endfacet
facet normal 0.881921 0.000000 0.471397
outer loop
vertex 7.702276 3.635348 5.805603
vertex 8.002608 -0.364652 5.243721
vertex 8.002608 3.635348 5.243721
endloop
endfacet
facet normal 0.000000 -1.000000 -0.000000
outer loop
vertex 8.002608 -0.364652 2.756279
vertex 8.187551 -0.364652 3.365956
vertex 8.250000 -0.364652 4.000000
endloop
endfacet
facet normal 0.000000 -1.000000 0.000000
outer loop
vertex 8.250000 -0.364652 4.000000
vertex 8.187551 -0.364652 4.634044
vertex 8.002608 -0.364652 5.243721
endloop
endfacet
facet normal 0.000001 -1.000000 0.000001
outer loop
vertex 8.002608 -0.364652 5.243721
vertex 7.702276 -0.364652 5.805603
vertex 7.298097 -0.364652 6.298097
endloop
endfacet
facet normal 0.000000 -1.000000 0.000000
outer loop
vertex 7.298097 -0.364652 6.298097
vertex 6.805603 -0.364652 6.702276
vertex 6.243721 -0.364652 7.002608
endloop
endfacet
facet normal 0.000000 -1.000000 -0.000000
outer loop
vertex 6.243721 -0.364652 7.002608
vertex 5.634044 -0.364652 7.187552
vertex 5.000000 -0.364652 7.250000
endloop
endfacet
facet normal 0.000000 -1.000000 -0.000000
outer loop
vertex 5.000000 -0.364652 7.250000
vertex 4.365956 -0.364652 7.187552
vertex 3.756279 -0.364652 7.002608
endloop
endfacet
facet normal -0.000001 -1.000000 0.000001
outer loop
vertex 3.756279 -0.364652 7.002608
vertex 3.194397 -0.364652 6.702276
vertex 2.701903 -0.364652 6.298097
endloop
endfacet
facet normal 0.000000 -1.000000 0.000000
outer loop
vertex 2.701903 -0.364652 6.298097
vertex 2.297724 -0.364652 5.805604
vertex 1.997392 -0.364652 5.243721
endloop
endfacet
facet normal 0.000000 -1.000000 0.000000
outer loop
vertex 1.997392 -0.364652 5.243721
vertex 1.812448 -0.364652 4.634044
vertex 1.750000 -0.364652 4.000000
endloop
endfacet
facet normal 0.000000 -1.000000 -0.000000
outer loop
vertex 1.750000 -0.364652 4.000000
vertex 1.812448 -0.364652 3.365957
vertex 1.997392 -0.364652 2.756279
endloop
endfacet
facet normal 0.000000 -1.000000 -0.000000
outer loop
vertex 1.997392 -0.364652 2.756279
vertex 2.297724 -0.364652 2.194397
vertex 2.701903 -0.364652 1.701903
endloop
endfacet
facet normal -0.000001 -1.000000 -0.000001
outer loop
vertex 2.701903 -0.364652 1.701903
vertex 3.194396 -0.364652 1.297724
vertex 3.756279 -0.364652 0.997392
endloop
endfacet
facet normal 0.000000 -1.000000 0.000000
outer loop
vertex 3.756279 -0.364652 0.997392
vertex 4.365956 -0.364652 0.812448
vertex 5.000000 -0.364652 0.750000
endloop
endfacet
facet normal 0.000000 -1.000000 0.000000
outer loop
vertex 5.000000 -0.364652 0.750000
vertex 5.634043 -0.364652 0.812448
vertex 6.243721 -0.364652 0.997392
endloop
endfacet
facet normal 0.000000 -1.000000 0.000000
outer loop
vertex 6.243721 -0.364652 0.997392
vertex 6.805603 -0.364652 1.297724
vertex 7.298097 -0.364652 1.701903
endloop
endfacet
facet normal 0.000001 -1.000000 -0.000001
outer loop
vertex 7.298097 -0.364652 1.701903
vertex 7.702276 -0.364652 2.194396
vertex 8.002608 -0.364652 2.756279
endloop
endfacet
facet normal 0.000000 -1.000000 0.000000
outer loop
vertex 8.002608 -0.364652 2.756279
vertex 8.250000 -0.364652 4.000000
vertex 8.002608 -0.364652 5.243721
endloop
endfacet
facet normal 0.000000 -1.000000 0.000000
outer loop
vertex 8.002608 -0.364652 5.243721
vertex 7.298097 -0.364652 6.298097
vertex 6.243721 -0.364652 7.002608
endloop
endfacet
facet normal 0.000000 -1.000000 0.000000
outer loop
vertex 6.243721 -0.364652 7.002608
vertex 5.000000 -0.364652 7.250000
vertex 3.756279 -0.364652 7.002608
endloop
endfacet
facet normal -0.000000 -1.000000 0.000000
outer loop
vertex 3.756279 -0.364652 7.002608
vertex 2.701903 -0.364652 6.298097
vertex 1.997392 -0.364652 5.243721
endloop
endfacet
facet normal 0.000000 -1.000000 0.000000
outer loop
vertex 1.997392 -0.364652 5.243721
vertex 1.750000 -0.364652 4.000000
vertex 1.997392 -0.364652 2.756279
endloop
endfacet
facet normal -0.000000 -1.000000 -0.000000
outer loop
vertex 1.997392 -0.364652 2.756279
vertex 2.701903 -0.364652 1.701903
vertex 3.756279 -0.364652 0.997392
endloop
endfacet
facet normal 0.000000 -1.000000 0.000000
outer loop
vertex 3.756279 -0.364652 0.997392
vertex 5.000000 -0.364652 0.750000
vertex 6.243721 -0.364652 0.997392
endloop
endfacet
facet normal 0.000000 -1.000000 -0.000000
outer loop
vertex 6.243721 -0.364652 0.997392
vertex 7.298097 -0.364652 1.701903
vertex 8.002608 -0.364652 2.756279
endloop
endfacet
facet normal -0.000000 -1.000000 0.000000
outer loop
vertex 8.002608 -0.364652 2.756279
vertex 8.002608 -0.364652 5.243721
vertex 6.243721 -0.364652 7.002608
endloop
endfacet
facet normal 0.000000 -1.000000 -0.000000
outer loop
vertex 6.243721 -0.364652 7.002608
vertex 3.756279 -0.364652 7.002608
vertex 1.997392 -0.364652 5.243721
endloop
endfacet
facet normal -0.000000 -1.000000 0.000000
outer loop
vertex 1.997392 -0.364652 5.243721
vertex 1.997392 -0.364652 2.756279
vertex 3.756279 -0.364652 0.997392
endloop
endfacet
facet normal 0.000000 -1.000000 -0.000000
outer loop
vertex 3.756279 -0.364652 0.997392
vertex 6.243721 -0.364652 0.997392
vertex 8.002608 -0.364652 2.756279
endloop
endfacet
facet normal -0.000000 -1.000000 0.000000
outer loop
vertex 8.002608 -0.364652 2.756279
vertex 6.243721 -0.364652 7.002608
vertex 1.997392 -0.364652 5.243721
endloop
endfacet
facet normal -0.000000 -1.000000 0.000000
outer loop
vertex 1.997392 -0.364652 5.243721
vertex 3.756279 -0.364652 0.997392
vertex 8.002608 -0.364652 2.756279
endloop
endfacet
facet normal 0.956940 0.000000 0.290284
outer loop
vertex 8.002608 3.635348 5.243721
vertex 8.002608 -0.364652 5.243721
vertex 8.187551 -0.364652 4.634044
endloop
endfacet
facet normal 0.956940 0.000000 0.290284
outer loop
vertex 8.002608 3.635348 5.243721
vertex 8.187551 -0.364652 4.634044
vertex 8.187551 3.635348 4.634044
endloop
endfacet
facet normal 0.995185 0.000000 0.098018
outer loop
vertex 8.187551 3.635348 4.634044
vertex 8.187551 -0.364652 4.634044
vertex 8.250000 -0.364652 4.000000
endloop
endfacet
facet normal 0.995185 0.000000 0.098018
outer loop
vertex 8.187551 3.635348 4.634044
vertex 8.250000 -0.364652 4.000000
vertex 8.250000 3.635348 4.000000
endloop
endfacet
facet normal 0.000000 1.000000 0.000000
outer loop
vertex 8.187551 3.635348 4.634044
vertex 8.250000 3.635348 4.000000
vertex 8.187551 3.635348 3.365956
endloop
endfacet
facet normal 0.000000 1.000000 0.000000
outer loop
vertex 8.187551 3.635348 3.365956
vertex 8.002608 3.635348 2.756279
vertex 7.702276 3.635348 2.194396
endloop
endfacet
facet normal 0.000000 1.000000 0.000000
outer loop
vertex 7.702276 3.635348 2.194396
vertex 7.298097 3.635348 1.701903
vertex 6.805603 3.635348 1.297724
endloop
endfacet
facet normal 0.000000 1.000000 0.000006
outer loop
vertex 6.805603 3.635348 1.297724
vertex 6.243721 3.635348 0.997392
vertex 5.634044 3.635348 0.812448
endloop
endfacet
facet normal 0.000000 1.000000 0.000000
outer loop
vertex 5.634044 3.635348 0.812448
vertex 5.000000 3.635348 0.750000
vertex 4.365956 3.635348 0.812448
endloop
endfacet
facet normal 0.000000 1.000000 0.000000
outer loop
vertex 4.365956 3.635348 0.812448
vertex 3.756279 3.635348 0.997392
vertex 3.194397 3.635348 1.297724
endloop
endfacet
facet normal 0.000000 1.000000 -0.000003
outer loop
vertex 3.194397 3.635348 1.297724
vertex 2.701903 3.635348 1.701903
vertex 2.297724 3.635348 2.194397
endloop
endfacet
facet normal 0.000004 1.000000 0.000003
outer loop
vertex 2.297724 3.635348 2.194397
vertex 1.997392 3.635348 2.756279
vertex 1.812448 3.635348 3.365957
endloop
endfacet
facet normal 0.000000 1.000000 0.000000
outer loop
vertex 1.812448 3.635348 3.365957
vertex 1.750000 3.635348 4.000000
vertex 1.812448 3.635348 4.634044
endloop
endfacet
facet normal 0.000004 1.000000 -0.000003
outer loop
vertex 1.812448 3.635348 4.634044
vertex 1.997392 3.635348 5.243721
vertex 2.297724 3.635348 5.805604
endloop
endfacet
facet normal 0.000000 1.000000 -0.000003
outer loop
vertex 2.297724 3.635348 5.805604
vertex 2.701903 3.635348 6.298097
vertex 3.194397 3.635348 6.702276
endloop
endfacet
facet normal 0.000000 1.000000 0.000000
outer loop
vertex 3.194397 3.635348 6.702276
vertex 3.756279 3.635348 7.002608
vertex 4.365957 3.635348 7.187552
endloop
endfacet
facet normal 0.000000 1.000000 0.000006
outer loop
vertex 4.365957 3.635348 7.187552
vertex 5.000000 3.635348 7.250000
vertex 5.634044 3.635348 7.187552
endloop
endfacet
facet normal 0.000000 1.000000 0.000000
outer loop
vertex 5.634044 3.635348 7.187552
vertex 6.243721 3.635348 7.002608
vertex 6.805604 3.635348 6.702276
endloop
endfacet
facet normal 0.000000 1.000000 0.000000
outer loop
vertex 6.805604 3.635348 6.702276
vertex 7.298097 3.635348 6.298097
vertex 7.702276 3.635348 5.805603
endloop
endfacet
facet normal 0.000000 1.000000 0.000000
outer loop
vertex 7.702276 3.635348 5.805603
vertex 8.002608 3.635348 5.243721
vertex 8.187551 3.635348 4.634044
endloop
endfacet
facet normal 0.000000 1.000000 0.000000
outer loop
vertex 8.187551 3.635348 4.634044
vertex 8.187551 3.635348 3.365956
vertex 7.702276 3.635348 2.194396
endloop
endfacet
facet normal 0.000000 1.000000 0.000000
outer loop
vertex 7.702276 3.635348 2.194396
vertex 6.805603 3.635348 1.297724
vertex 5.634044 3.635348 0.812448
endloop
endfacet
facet normal 0.000000 1.000000 0.000000
outer loop
vertex 5.634044 3.635348 0.812448
vertex 4.365956 3.635348 0.812448
vertex 3.194397 3.635348 1.297724
endloop
endfacet
facet normal -0.000001 1.000000 -0.000001
outer loop
vertex 3.194397 3.635348 1.297724
vertex 2.297724 3.635348 2.194397
vertex 1.812448 3.635348 3.365957
endloop
endfacet
facet normal 0.000001 1.000000 0.000000
outer loop
vertex 1.812448 3.635348 3.365957
vertex 1.812448 3.635348 4.634044
vertex 2.297724 3.635348 5.805604
endloop
endfacet
facet normal 0.000000 1.000000 0.000000
outer loop
vertex 2.297724 3.635348 5.805604
vertex 3.194397 3.635348 6.702276
vertex 4.365957 3.635348 7.187552
endloop
endfacet
facet normal 0.000000 1.000000 -0.000002
outer loop
vertex 4.365957 3.635348 7.187552
vertex 5.634044 3.635348 7.187552
vertex 6.805604 3.635348 6.702276
endloop
endfacet
facet normal 0.000000 1.000000 0.000001
outer loop
vertex 6.805604 3.635348 6.702276
vertex 7.702276 3.635348 5.805603
vertex 8.187551 3.635348 4.634044
endloop
endfacet
facet normal 0.000000 1.000000 -0.000000
outer loop
vertex 8.187551 3.635348 4.634044
vertex 7.702276 3.635348 2.194396
vertex 5.634044 3.635348 0.812448
endloop
endfacet
facet normal -0.000000 1.000000 -0.000000
outer loop
vertex 5.634044 3.635348 0.812448
vertex 3.194397 3.635348 1.297724
vertex 1.812448 3.635348 3.365957
endloop
endfacet
facet normal -0.000000 1.000000 0.000000
outer loop
vertex 1.812448 3.635348 3.365957
vertex 2.297724 3.635348 5.805604
vertex 4.365957 3.635348 7.187552
endloop
endfacet
facet normal 0.000000 1.000000 0.000000
outer loop
vertex 4.365957 3.635348 7.187552
vertex 6.805604 3.635348 6.702276
vertex 8.187551 3.635348 4.634044
endloop
endfacet
facet normal 0.000000 1.000000 0.000000
outer loop
vertex 8.187551 3.635348 4.634044
vertex 5.634044 3.635348 0.812448
vertex 1.812448 3.635348 3.365957
endloop
endfacet
facet normal 0.000000 1.000000 0.000000
outer loop
vertex 1.812448 3.635348 3.365957
vertex 4.365957 3.635348 7.187552
vertex 8.187551 3.635348 4.634044
endloop
endfacet
endsolid Exported from Blender-3.4.0
